<?xml version="1.0" encoding="UTF-8"?>
<svg id="Layer_1" data-name="Layer 1" xmlns="http://www.w3.org/2000/svg" viewBox="0 0 208.98 154.03">
  <defs>
    <style>
      .cls-1 {
        fill: #64b7e1;
      }

      .cls-1, .cls-2 {
        stroke-width: 0px;
      }

      .cls-2 {
        fill: #ffb511;
      }
    </style>
  </defs>
  <path class="cls-2" d="M60.06,43.87L0,.23v8.65l56.07,40.74c1.21-2,2.54-3.93,3.99-5.76Z"/>
  <path class="cls-2" d="M73.41,31.7L50.38,0h-8.65l26.07,35.88c1.78-1.51,3.65-2.9,5.62-4.18Z"/>
  <path class="cls-2" d="M90.01,24.43L82.07,0h-7.36l8.63,26.57c2.16-.85,4.39-1.56,6.67-2.14Z"/>
  <path class="cls-2" d="M108.05,22.94V0h-7.12v22.94c1.18-.09,2.36-.14,3.56-.16,1.19.02,2.38.07,3.56.16Z"/>
  <path class="cls-2" d="M167.26,0h-8.65l-23.03,31.7c1.96,1.28,3.84,2.67,5.62,4.18L167.26,0Z"/>
  <path class="cls-2" d="M134.28,0h-7.36l-7.94,24.43c2.28.58,4.51,1.29,6.67,2.14L134.28,0Z"/>
  <path class="cls-2" d="M51.36,59.55L0,42.86v7.36l49.42,16.06c.51-2.3,1.15-4.55,1.94-6.73Z"/>
  <path class="cls-2" d="M159.56,66.28l49.42-16.06v-7.36l-51.36,16.69c.78,2.18,1.43,4.43,1.94,6.73Z"/>
  <path class="cls-1" d="M192.4,140.02h-23.34c-1.93,0-3.5-1.57-3.5-3.5h0c0-1.93,1.57-3.5,3.5-3.5h11.67c1.93,0,3.5-1.57,3.5-3.5v-7c0-1.93-1.57-3.5-3.5-3.5h-24.5c-1.93,0-3.5-1.57-3.5-3.5h0c0-1.93,1.57-3.5,3.5-3.5h14.59c1.93,0,3.5-1.57,3.5-3.5h0c0-1.93-1.57-3.5-3.5-3.5h-26.25c-1.93,0-3.5-1.57-3.5-3.5h0c0-1.93,1.57-3.5,3.5-3.5h4.67c1.93,0,3.5-1.57,3.5-3.5v-3.5H56.26s0,3.5,0,3.5c0,1.93,1.57,3.5,3.5,3.5h4.67c1.93,0,3.5,1.57,3.5,3.5h0c0,1.93-1.57,3.5-3.5,3.5h-26.25c-1.93,0-3.5,1.57-3.5,3.5h0c0,1.93,1.57,3.5,3.5,3.5h14.59c1.93,0,3.5,1.57,3.5,3.5h0c0,1.93-1.57,3.5-3.5,3.5h-24.5c-1.93,0-3.5,1.57-3.5,3.5v7c0,1.93,1.57,3.5,3.5,3.5h11.67c1.93,0,3.5,1.57,3.5,3.5h0c0,1.93-1.57,3.5-3.5,3.5h-23.34c-1.93,0-3.5,1.57-3.5,3.5h0c0,1.93-1.57,3.5-3.5,3.5H4c-1.93,0-3.5,1.57-3.5,3.5v3.5h207.99v-3.5c0-1.93-1.57-3.5-3.5-3.5h-5.59c-1.93,0-3.5-1.57-3.5-3.5h0c0-1.93-1.57-3.5-3.5-3.5Z"/>
  <path class="cls-2" d="M152.91,49.62l56.07-40.74V.23l-60.06,43.64c1.45,1.83,2.78,3.75,3.99,5.76Z"/>
  <path class="cls-2" d="M104.49,29.75c-26.35,0-47.77,21.05-48.4,47.26H.5v7h207.99v-7h-55.6c-.62-26.2-22.04-47.26-48.4-47.26Z"/>
</svg>