<?xml version="1.0" encoding="UTF-8"?>
<svg id="Layer_1" data-name="Layer 1" xmlns="http://www.w3.org/2000/svg" viewBox="0 0 600 154.61">
  <defs>
    <style>
      .cls-1 {
        fill: #faf3db;
        stroke-width: 0px;
      }
    </style>
  </defs>
  <path class="cls-1" d="M199.31,1.46H1.23C.55,1.46,0,2.02,0,2.7v149.12c0,.69.55,1.24,1.23,1.24h198.08c.68,0,1.23-.55,1.23-1.24V2.7c0-.68-.55-1.24-1.23-1.24ZM149.09,7.78h7.81l-23.52,32.37c-1.61-1.36-3.3-2.62-5.07-3.77l20.78-28.6ZM120.5,7.78h6.64l-7.79,23.97c-1.95-.76-3.96-1.41-6.02-1.93l7.17-22.04ZM97.06,7.78h6.42v20.69c-1.06-.08-2.13-.12-3.21-.14-1.08.02-2.15.06-3.21.14V7.78ZM80.04,7.78l7.16,22.04c-2.06.52-4.07,1.17-6.01,1.93l-7.79-23.97h6.64ZM51.45,7.78l20.77,28.6c-1.77,1.15-3.46,2.41-5.06,3.77L43.64,7.78h7.81ZM6,7.99l54.18,39.37c-1.3,1.65-2.5,3.38-3.59,5.19L6,15.79v-7.8ZM6,46.45l46.33,15.06c-.7,1.97-1.29,3.99-1.74,6.07L6,53.09v-6.64ZM194.09,146.74H6.44v-3.16c0-1.74,1.42-3.16,3.16-3.16h5.04c1.75,0,3.16-1.41,3.16-3.15,0-.88.36-1.66.93-2.24.57-.57,1.36-.92,2.23-.92h21.06c1.74,0,3.15-1.42,3.15-3.16,0-.87-.35-1.66-.92-2.23-.57-.57-1.36-.93-2.23-.93h-10.53c-1.75,0-3.16-1.41-3.16-3.16v-6.31c0-1.75,1.41-3.16,3.16-3.16h22.11c1.74,0,3.15-1.41,3.15-3.16,0-.87-.35-1.66-.92-2.23-.57-.58-1.36-.93-2.23-.93h-13.16c-1.75,0-3.16-1.41-3.16-3.16,0-.87.35-1.66.92-2.23.58-.57,1.36-.92,2.24-.92h23.68c1.75,0,3.16-1.42,3.16-3.16,0-.88-.35-1.66-.92-2.24-.58-.57-1.36-.92-2.24-.92h-4.21c-1.74,0-3.16-1.41-3.16-3.16v-3.16h87.03v3.16c0,1.75-1.41,3.16-3.16,3.16h-4.21c-1.74,0-3.16,1.41-3.16,3.16,0,.87.35,1.66.93,2.23.57.57,1.36.93,2.23.93h23.69c1.74,0,3.16,1.41,3.16,3.15,0,.87-.36,1.67-.93,2.24-.57.57-1.36.92-2.23.92h-13.16c-1.74,0-3.16,1.42-3.16,3.16,0,.87.36,1.67.93,2.24s1.36.92,2.23.92h22.11c1.74,0,3.16,1.41,3.16,3.16v6.31c0,1.75-1.42,3.16-3.16,3.16h-10.53c-1.74,0-3.16,1.42-3.16,3.16,0,.87.36,1.66.93,2.23s1.36.93,2.23.93h21.05c1.75,0,3.16,1.41,3.16,3.16,0,.87.35,1.66.93,2.23.57.57,1.36.92,2.23.92h5.04c1.75,0,3.16,1.42,3.16,3.16v3.16ZM194.09,83.58H6.44v-6.32h50.17c.56-23.64,19.88-42.63,43.66-42.63s43.1,18.99,43.66,42.63h50.16v6.32ZM194.54,53.09l-44.59,14.49c-.46-2.08-1.04-4.1-1.75-6.07l46.34-15.06v6.64ZM194.54,15.79l-50.59,36.76c-1.09-1.81-2.29-3.54-3.6-5.19L194.54,7.99v7.8Z"/>
  <g>
    <path class="cls-1" d="M236.75,1.53c.92,0,1.53.71,1.53,1.53v67.26c0,.71-.61,1.42-1.53,1.42h-18.01c-.71,0-1.42-.71-1.42-1.42V3.05c0-.81.71-1.53,1.42-1.53h18.01Z"/>
    <path class="cls-1" d="M253.23,50.37c.31-1.02,1.02-1.32,1.83-.81,4.68,2.65,10.28,4.58,14.14,4.88,3.26,0,5.39-1.53,5.39-3.87,0-6-28.59-5.7-28.59-27.88,0-13.63,10.28-22.69,25.74-22.69,7.22,0,16.38,2.95,22.79,7.33.81.51,1.12,1.32.81,1.83l-6.41,14.35c-.31,1.02-1.02,1.32-1.83.81-4.99-2.85-10.79-4.99-14.35-5.29-3.15,0-5.19,1.42-5.19,3.66,0,6,28.8,5.6,28.8,27.98,0,13.53-10.48,22.59-26.15,22.59-8.55,0-17.5-2.65-22.59-6.72-.81-.61-1.12-1.32-.81-1.83l6.41-14.35Z"/>
    <path class="cls-1" d="M344.1,53.42c.71,0,1.32.61,1.32,1.42l-1.42,15.47c-.1.71-.81,1.42-1.63,1.42h-36.73c-.81,0-1.53-.71-1.53-1.42V3.05c0-.81.71-1.53,1.53-1.53h18.01c.81,0,1.53.71,1.53,1.53v50.37h18.93Z"/>
    <path class="cls-1" d="M420.11,70.41c.31.61-.1,1.32-.92,1.32h-20.15c-.92,0-1.73-.51-2.14-1.32l-3.05-10.68h-19.13l-3.05,10.68c-.41.81-1.22,1.32-2.14,1.32h-20.15c-.81,0-1.22-.71-.92-1.32L371.47,2.85c.31-.61,1.42-1.32,2.44-1.32h20.76c1.02,0,2.14.71,2.44,1.32l23,67.56ZM384.29,25.84l-5.49,19.33h10.99l-5.49-19.33Z"/>
    <path class="cls-1" d="M482.58,1.53c.92,0,1.53.71,1.53,1.53v67.26c0,.71-.61,1.42-1.53,1.42h-17.6c-.71,0-1.63-.51-2.14-1.32l-17.7-31.64v31.54c0,.71-.61,1.42-1.53,1.42h-18.01c-.81,0-1.42-.71-1.42-1.42V3.05c0-.81.61-1.53,1.42-1.53h17.6c.92,0,1.93.51,2.34,1.32l17.6,31.64V3.05c0-.81.71-1.53,1.42-1.53h18.01Z"/>
    <path class="cls-1" d="M518.5,1.53c21.57,0,35.92,13.94,35.92,35.1s-14.35,35.1-35.92,35.1h-23.61c-.71,0-1.42-.71-1.42-1.53V3.05c0-.81.71-1.53,1.42-1.53h23.61ZM519.72,53.42c7.83,0,13.13-6.72,13.13-16.79s-5.29-16.79-13.13-16.79h-5.29v33.58h5.29Z"/>
    <path class="cls-1" d="M249.37,82.87c13.33,0,22.18,7.94,22.18,19.84,0,7.33-3.56,12.72-9.06,14.35,6.41,1.63,10.58,7.73,10.58,16.18,0,11.9-8.85,19.84-22.08,19.84h-32.26c-.81,0-1.42-.71-1.42-1.42v-67.26c0-.71.61-1.53,1.42-1.53h30.63ZM244.69,110.45c3.05,0,5.09-1.83,5.09-4.68s-2.04-4.68-5.09-4.68h-6.41v9.36h6.41ZM246.52,134.87c2.95,0,4.99-1.93,4.99-4.88s-2.04-4.88-4.99-4.88h-8.24v9.77h8.24Z"/>
    <path class="cls-1" d="M300.35,82.87c.92,0,1.53.71,1.53,1.53v67.26c0,.71-.61,1.42-1.53,1.42h-18.01c-.71,0-1.42-.71-1.42-1.42v-67.26c0-.81.71-1.53,1.42-1.53h18.01Z"/>
    <path class="cls-1" d="M365.77,82.87c.92,0,1.53.71,1.42,1.42l-1.53,15.47c-.1.81-.92,1.42-1.63,1.42h-15.16v50.47c0,.71-.61,1.42-1.42,1.42h-18.01c-.81,0-1.53-.71-1.53-1.42v-50.47h-16.89c-.71,0-1.42-.61-1.42-1.42v-15.36c0-.81.71-1.53,1.42-1.53h54.74Z"/>
    <path class="cls-1" d="M425.5,146.87c.31.71-.1,1.42-.92,1.83-5.9,3.66-13.84,5.9-21.37,5.9-20.96,0-35-14.65-35-36.63s14.04-36.63,35-36.63c7.53,0,15.47,2.24,21.37,5.9.81.41,1.22,1.12.92,1.83l-6.72,14.14c-.41.92-1.12,1.22-1.93.81-3.76-2.14-7.43-2.85-11.8-2.85-9.16,0-15.26,6.72-15.26,16.79s6.11,16.79,15.26,16.79c4.38,0,8.04-.71,11.8-2.85.81-.41,1.53-.1,1.93.81l6.72,14.14Z"/>
    <path class="cls-1" d="M465.18,154.5c-21.67,0-36.12-14.65-36.12-36.53s14.45-36.73,36.12-36.73,36.12,14.65,36.12,36.73-14.45,36.53-36.12,36.53ZM465.18,101.8c-8.34,0-13.94,6.51-13.94,16.18s5.6,16.18,13.94,16.18,13.94-6.51,13.94-16.18-5.6-16.18-13.94-16.18Z"/>
    <path class="cls-1" d="M529.18,82.87c.92,0,1.53.71,1.53,1.53v67.26c0,.71-.61,1.42-1.53,1.42h-18.01c-.71,0-1.42-.71-1.42-1.42v-67.26c0-.81.71-1.53,1.42-1.53h18.01Z"/>
    <path class="cls-1" d="M598.47,82.87c.92,0,1.53.71,1.53,1.53v67.26c0,.71-.61,1.42-1.53,1.42h-17.6c-.71,0-1.63-.51-2.14-1.32l-17.7-31.64v31.54c0,.71-.61,1.42-1.53,1.42h-18.01c-.81,0-1.42-.71-1.42-1.42v-67.26c0-.81.61-1.53,1.42-1.53h17.6c.92,0,1.93.51,2.34,1.32l17.6,31.64v-31.44c0-.81.71-1.53,1.42-1.53h18.01Z"/>
  </g>
</svg>